<svg xmlns="http://www.w3.org/2000/svg" xmlns:xlink="http://www.w3.org/1999/xlink">
<defs>
<symbol id="edit" viewBox="4.5 -0.5 20 20">
<path d="M22.894,5.813c-0.549-0.909-1.227-1.798-2.057-2.622c-0.838-0.833-1.743-1.516-2.669-2.064L19.794-0.5
	c0,0,2.354,0,3.529,1.176C24.5,1.853,24.5,4.206,24.5,4.206L22.894,5.813z M9.206,19.5H4.5v-4.706l0.564-0.565
	c0.957,0.454,1.907,1.09,2.763,1.944c0.856,0.857,1.492,1.806,1.943,2.762L9.206,19.5z M21.536,7.17L11.128,17.577
	c-0.549-0.908-1.227-1.8-2.056-2.623c-0.838-0.834-1.744-1.516-2.67-2.063L16.83,2.465c0.956,0.45,1.907,1.087,2.762,1.942
	C20.449,5.264,21.086,6.214,21.536,7.17z"/>
</symbol>
<symbol id="bell" viewBox="0 0 48 48">
<path d="M40.62,28.34l-.87-.7A2,2,0,0,1,39,26.08V18A15,15,0,0,0,26.91,3.29a3,3,0,0,0-5.81,0A15,15,0,0,0,9,18v8.08a2,2,0,0,1-.75,1.56l-.87.7a9,9,0,0,0-3.38,7V37a4,4,0,0,0,4,4h8.26a8,8,0,0,0,15.47,0H40a4,4,0,0,0,4-4V35.36A9,9,0,0,0,40.62,28.34ZM24,43a4,4,0,0,1-3.44-2h6.89A4,4,0,0,1,24,43Zm16-6H8V35.36a5,5,0,0,1,1.88-3.9l.87-.7A6,6,0,0,0,13,26.08V18a11,11,0,0,1,22,0v8.08a6,6,0,0,0,2.25,4.69l.87.7A5,5,0,0,1,40,35.36Z"/>
</symbol>
<symbol id="close" viewBox="0 0 32 32" stroke-width="2px">
	<line class="cls-1" x1="7" x2="25" y1="7" y2="25"/>
	<line class="cls-1" x1="7" x2="25" y1="25" y2="7"/>
</symbol>
<symbol id="check" viewBox="0 0 512 512">
<g><path class="st0" d="M235.1,386.3c-5.7,0-11.1-2.4-14.9-6.6l-104.1-116c-7.4-8.2-6.7-20.9,1.5-28.2c8.2-7.4,20.9-6.7,28.2,1.5   l86.8,96.8l131.6-199.1c6.1-9.2,18.5-11.7,27.7-5.7c9.2,6.1,11.7,18.5,5.7,27.7L251.8,377.4c-3.4,5.2-9,8.5-15.2,8.9   C236.1,386.3,235.6,386.3,235.1,386.3z"/></g>
</symbol>
<symbol id="validate_no">
	<path d="M1 1L7 7M7 1L1 7" stroke="#860101"/>
</symbol>
<symbol id="validate_yes">
	<path d="M1 3.625L3.86364 8L10 1" stroke="#107100" stroke-linecap="square" fill="none"/>
</symbol>
<symbol id="show_password">
	<path d="M0 2.95861C4.76174 6.76893 7.34922 6.7941 12 2.95861C7.38474 -1.02907 4.71772 -0.943054 0 2.95861Z" fill="#7B7B7B"/>
	<circle cx="6" cy="3" r="2" fill="white"/>
	<path d="M7 3C7 3.55228 6.55228 4 6 4C5.44772 4 5 3.55228 5 3C5 2.44772 5.44772 2 6 2C6.55228 2 7 2.44772 7 3Z" fill="#7B7B7B"/>
</symbol>
</defs>
</svg>
